<svg width="154" height="24" viewBox="0 0 154 24" fill="none" xmlns="http://www.w3.org/2000/svg">
<path d="M95.8359 0.915368L97.4624 0.931278C97.5578 1.86975 97.7089 2.83606 97.4624 3.73079L98.3849 3.96541L98.5162 3.50412C98.8939 4.12049 99.4308 3.80237 100.023 3.75465L100.047 4.19605L100.739 3.97337C100.365 5.15839 100.397 6.25592 100.532 7.46878L100.974 7.60001C100.496 7.93007 100.441 8.32772 100.504 8.88842L99.3353 8.65381V9.82292C98.8263 9.88257 97.3828 9.59626 97.2317 10.1848C97.184 10.3757 97.4663 10.6302 97.4663 10.8728C97.4663 11.3022 97.3669 11.4175 97.4186 12.0896C97.4425 12.4037 97.1204 12.535 97.3431 12.869C97.6493 13.3263 98.9854 13.0121 99.57 13.0996L99.3353 14.0341L100.504 13.7995C100.675 14.2727 100.266 14.7618 100.266 15.0879C100.266 15.6725 100.31 16.3684 100.329 16.9927C100.353 17.8676 100.6 18.7583 100.504 19.6531C99.2359 19.7922 97.9634 19.3309 96.7585 19.6531C96.6829 19.3787 96.9216 19.1997 96.9534 19.0287C97.0448 18.5317 96.7903 16.6786 96.7625 16.0224C96.7307 15.2828 96.7784 14.5392 96.7625 13.7995C96.0984 13.8592 95.3269 13.6086 94.7702 14.0182L94.4242 13.6802C94.3089 13.2746 94.6111 12.9048 94.5992 12.7378C94.5873 12.5707 94.0823 12.3043 94.1737 11.9305C93.2591 12.1293 92.0502 12.3759 91.1475 11.9305V19.4184C90.4835 19.4065 87.7436 20.0865 87.6839 19.0764C87.68 19.0009 87.8708 18.6907 87.8788 18.3766C87.9026 17.3268 87.6839 16.1537 87.68 15.1317C87.672 12.9127 87.8311 10.5308 87.8669 8.29592C87.8748 7.69943 87.6283 5.87814 87.6561 5.75487C87.7038 5.54809 88.0657 5.393 88.0657 5.26178C88.0657 4.97944 87.8032 4.86014 87.8788 3.84213C87.9504 2.8957 87.7157 3.22974 88.1015 1.97711C88.1651 1.77828 87.4374 2.03279 87.6362 1.51981C87.6919 1.37267 87.9305 1.22554 87.8788 0.939227C88.2367 1.05455 88.7656 0.740397 88.9286 0.752327C89.0916 0.764257 89.2149 1.08635 89.378 1.09431C90.1216 1.1301 90.7419 0.835839 91.5412 0.867651C92.1496 0.891511 92.4757 0.919345 93.1239 0.915368C93.8437 0.915368 94.802 1.02671 95.4621 0.939227C95.7524 0.899461 95.3945 0.362625 95.824 0.458063L95.8359 0.911388V0.915368ZM95.824 8.65381C96.6472 9.3855 97.0727 9.19462 96.8023 8.12095L96.6551 4.66529C96.3927 4.46248 96.0348 4.24775 95.7087 4.20798C95.0446 4.12448 94.2254 4.47441 93.6051 4.43862C93.1716 4.41078 92.1258 4.4267 92.0025 4.40681C91.7599 4.36705 91.4975 4.09267 91.1436 4.21196C91.2827 4.65734 90.9964 5.17032 90.9924 5.50037C90.9885 6.21218 91.243 7.32562 91.2867 8.0772C91.2947 8.24421 91.072 8.48678 91.1396 8.7731C91.2629 9.29006 92.5274 8.86456 92.8933 8.87649C93.2193 8.88842 93.4937 9.08725 93.6409 9.08725C94.289 9.08725 95.1758 8.67767 95.7127 9.12702L95.82 8.66574L95.824 8.65381Z" fill="white"/>
<path d="M128.36 9.35769C129.207 9.71558 130.277 9.29406 131.168 9.12307C131.387 8.39535 130.703 8.89244 130.699 8.4232L131.176 8.29595C130.925 7.608 131.057 7.23022 131.176 6.54625C131.697 6.82063 132.325 6.59396 132.874 6.60191C134.433 6.61384 136.695 6.43491 138.314 6.6218C138.56 6.64964 138.664 7.15467 139.129 6.78087C138.946 7.34952 138.588 9.16284 139.256 9.34974C139.773 9.4929 140.962 8.91629 141.471 9.70763V14.742C141.09 14.6267 140.708 14.8772 140.417 14.8931C138.262 15.0124 135.65 14.9011 133.395 14.8931C132.782 14.8931 132.059 14.404 131.422 14.7579C131.14 15.2351 131.387 15.4578 131.415 15.8037C131.45 16.3048 130.969 16.5116 131.53 16.8496L141.233 16.6189C141.145 17.0206 141.436 17.3387 141.475 17.6727C141.531 18.1539 141.3 18.3806 141.28 18.647C141.245 19.0765 141.754 19.3906 140.895 19.844C140.123 19.5417 139.149 19.6411 138.302 19.6491C136.624 19.661 134.862 19.6332 133.164 19.6372C132.771 19.6372 132.488 19.8956 132.226 19.8956C131.892 19.8956 131.407 19.49 130.937 19.6571C131.271 19.2355 131.005 19.0367 130.993 18.643C130.993 18.5317 131.148 18.3766 131.132 18.1738C131.116 17.9591 130.79 17.1041 130.591 17.1041C129.895 17.629 129.176 16.8854 128.364 17.0802V9.35372L128.36 9.35769ZM136.302 9.83886C135.912 10.2166 135.534 9.80307 135.296 9.85079C135.093 9.89454 134.954 10.2365 134.803 10.2445C134.687 10.2524 134.158 9.96213 133.852 9.91839C133.327 9.84283 132.643 9.91839 132.102 9.94225C131.848 9.95418 131.637 9.80705 131.53 9.82693C130.981 9.93828 131.403 10.4353 131.399 10.6381C131.391 10.8767 131.16 11.1034 131.196 11.3102C131.224 11.4693 131.482 11.6442 131.399 11.9266L132.091 11.6959L132.206 12.1532L132.798 11.9266L133.033 12.3958C133.045 12.2129 132.934 11.9465 133.16 11.9146C134.198 11.7675 135.423 11.8073 136.417 12.1731L136.564 11.7118C137.157 12.026 137.638 11.3341 138.274 11.68C138.815 11.346 138.978 10.2842 138.417 9.92237L137.256 9.8309L137.228 10.2763C136.858 10.0496 136.695 10.0536 136.326 10.2763L136.294 9.82693L136.302 9.83886Z" fill="white"/>
<path d="M104.954 6.5502L105.634 6.81664L105.773 7.25407L106.243 6.5502L106.362 7.01547C106.831 7.17453 107.034 6.4508 107.392 6.55816C107.599 6.61781 107.702 7.02342 108.116 7.02342C108.33 7.02342 109.798 6.93991 109.881 6.91606C110.688 6.68144 110.506 6.80073 111.114 6.74108C111.313 6.7212 111.559 6.45079 111.842 6.56213L112.669 8.18061L112.204 8.31184C112.164 8.61406 112.426 9.32189 112.669 9.48891C113.166 9.8309 113.56 9.3895 113.973 9.36564C114.271 9.34973 114.804 9.56048 115.258 9.36166C115.381 9.70762 115.079 10.0138 115.067 10.2206C114.916 12.8451 115.142 15.752 115.031 18.6112C115.019 18.8776 115.27 19.2276 115.027 19.661C114.395 19.2753 114.16 19.8241 113.981 19.832C111.591 19.9712 108.573 19.4304 106.259 19.6491C105.94 19.6809 105.769 20.007 105.427 19.7883C104.787 19.3787 105.01 17.804 104.962 17.0842H102.385C102.759 16.2133 102.759 14.9249 102.385 14.0421L104.728 13.9347C105.177 13.6405 104.883 12.4912 104.962 11.9345C105.471 11.9584 105.988 11.9027 106.493 11.9266C107.75 11.9783 109.01 12.1135 110.227 12.0816C110.724 12.0697 111.388 11.8033 111.977 11.9345C112.335 9.13499 111.539 9.99393 109.75 10.0695C108.525 10.1212 106.815 9.95814 105.539 9.91838C105.4 9.9144 105.177 10.1291 104.958 10.0655V6.55418L104.954 6.5502ZM105.42 16.8496C106.33 16.8376 107.448 16.6269 108.338 16.7144C108.668 16.7462 109.364 17.0365 109.523 17.0245C109.682 17.0126 109.818 16.6865 109.977 16.6746C110.446 16.6428 111.15 17.3188 111.746 16.7382C112.156 16.3446 112.208 14.8414 111.396 14.734C110.677 14.6386 109.583 14.7261 108.804 14.734C108.442 14.734 107.758 14.9408 107.404 14.905C107.217 14.8851 107.102 14.5829 106.95 14.571C106.696 14.5511 105.889 14.9329 105.42 14.742V16.8496Z" fill="white"/>
<path d="M121.803 3.0349L121.922 2.56964L122.63 3.00706L123.211 2.56964C123.414 3.21385 123.004 3.85408 122.964 4.33525C122.96 4.40683 122.972 5.43278 122.98 5.49242C123.024 5.83839 123.274 6.14062 123.223 6.5343C124.074 6.76097 124.782 6.79675 125.664 6.78085C125.891 6.77687 126.106 6.54225 126.336 6.57804C126.706 6.64166 127.148 6.9916 127.148 7.36937C127.148 7.50458 126.794 7.6557 126.782 7.82669C126.774 7.92611 126.949 8.10903 126.953 8.29991C126.961 8.80891 126.957 9.31791 126.957 9.82294C126.189 9.39744 125.585 9.96211 124.925 10.0178C124.579 10.0456 124.137 9.66785 123.573 9.83486C122.913 10.0297 123.378 10.6461 123.402 10.9205C123.453 11.4971 123.231 12.9326 123.27 13.4615C123.282 13.6246 123.604 13.7518 123.616 13.9148C123.624 14.0421 123.41 14.4557 123.425 14.8652C123.449 15.3663 123.648 16.0741 123.684 16.607C124.145 16.4638 124.65 16.8575 124.964 16.8535C125.199 16.8535 125.406 16.6348 125.672 16.6229C126.018 16.607 126.217 17.0325 126.607 16.3843C126.829 16.5672 126.921 16.6627 126.965 16.9649C127.076 17.7841 126.873 18.81 126.961 19.661L124.451 19.8439L122.511 19.661C123.048 18.7782 122.209 18.0783 122.745 17.0882L122.046 16.8535L121.811 17.5574C121.799 17.3745 121.91 17.108 121.684 17.0762C121.234 17.0126 120.821 17.0563 120.28 16.953C120.216 16.941 119.803 17.1558 119.707 16.7303C119.668 16.5593 119.882 16.3724 119.894 16.2292C119.998 14.8772 119.755 12.8133 119.715 11.3499C119.703 10.9125 120.026 10.2325 119.357 9.88258C118.367 10.1172 117.449 9.73943 116.431 9.83486C116.562 9.08727 116.2 7.36142 116.546 6.78482C116.649 6.61382 117.262 6.64962 117.48 6.65359C117.699 6.65757 117.918 6.80869 118.188 6.80869C118.419 6.80869 119.878 6.6178 119.946 6.55418C119.473 5.99348 119.858 5.48448 119.847 5.02717C119.835 4.52612 119.489 2.83209 120.057 2.82414L120.873 3.03093L120.888 2.57759L121.815 3.03888L121.803 3.0349Z" fill="white"/>
<path d="M143.34 19.6571C143.225 19.2753 143.563 18.9452 143.535 18.647C143.495 18.2016 143.181 17.3626 143.145 16.9212C143.07 15.9628 143.42 14.1574 143.352 13.2269C143.316 12.7219 142.887 12.4236 143.575 11.8112L143.094 11.5726C143.38 11.0398 143.126 10.5745 143.149 10.2166C143.165 9.97802 143.348 9.67978 143.352 9.2344C143.356 8.85663 143.106 8.25219 143.153 7.88236C143.185 7.63582 143.44 7.35746 143.34 7.01547C143.718 6.87231 144.163 7.18646 144.394 7.18248C144.577 7.18248 145.356 6.7053 145.758 6.80869C145.973 6.86436 146.104 7.17851 146.255 7.19044C146.406 7.20237 146.768 6.8922 147.082 7.01547C146.617 7.69547 146.804 8.29594 146.657 9.00775C146.697 9.44517 148.343 9.54856 148.709 9.34178C148.983 8.44705 148.307 7.02343 149.54 6.60986C149.898 6.49057 150.546 6.95184 150.705 6.94786C151.27 6.93991 151.751 7.02342 152.113 7.01547C152.399 7.01149 152.661 6.64166 152.936 6.88424C153.854 7.46482 153.131 8.09711 153.194 8.49874C153.246 8.8288 153.747 9.1509 153.636 9.58832L153.166 9.48493V10.0536C152.681 10.2166 152.176 9.88657 151.838 9.86271C151.337 9.82692 150.216 10.0417 149.818 10.0059C149.623 9.98995 149.09 9.6082 148.955 10.1808C148.923 10.3121 149.23 11.4931 149.202 11.8033C149.178 12.0896 148.919 12.3163 148.943 12.6185C148.12 12.5429 147.687 13.04 147.082 12.3958C146.728 13.3422 147.09 14.3443 146.84 15.3106L146.848 19.6531H143.336L143.34 19.6571Z" fill="white"/>
<path d="M49.4331 7.10688L49.5484 6.64161C50.3835 7.38524 51.2663 6.85237 52.1213 6.88418C52.3877 6.89611 52.5985 7.11085 52.8331 7.11483C53.1592 7.12278 53.692 6.71319 54.0022 6.71717C54.1971 6.71717 54.5072 6.9836 54.8214 6.87623C54.5828 7.42898 54.8651 7.98172 54.8333 8.39131C54.7896 9.00768 53.9744 9.30593 54.8174 9.81494C55.1037 9.98991 55.2707 9.74733 55.4099 9.75528C55.6048 9.76721 55.732 10.1012 55.8672 10.1052C55.9189 10.1052 56.6943 9.75131 56.7858 9.69166C56.9369 9.59225 57.0085 9.31786 57.1596 9.09119C57.2988 8.88441 56.5591 9.13494 56.6904 8.74125L57.1715 8.61003C56.8614 8.13682 57.0642 7.92208 57.1039 7.48863C57.1119 7.41307 56.8057 6.9836 57.2829 6.86828C57.5652 6.80068 57.8038 7.01939 57.9788 7.01542C58.1538 7.01144 58.3725 6.86828 58.6747 6.8643C59.1042 6.85635 59.3428 7.19436 59.9631 6.63763C59.7881 7.21424 60.4164 7.03132 60.4483 7.23015L60.2017 9.67575L61.1282 9.90639L61.2595 9.44511C61.7168 10.3239 63.1523 9.27809 63.4585 10.2921C63.6017 10.7693 63.5023 12.2208 63.4824 12.8371C63.4227 14.7896 63.3114 16.7183 63.3353 18.6907C63.3392 19.1957 63.8602 20.0944 62.707 19.9314C61.7725 19.8002 60.9254 19.6053 59.975 19.9791C60.1023 19.5814 59.7325 19.2196 59.7404 18.9293C59.7961 16.4479 60.0943 13.6205 59.7484 11.1988C59.7086 10.9284 59.7563 10.65 59.7444 10.3836C59.0485 10.5108 58.0583 10.6063 57.4062 10.3836C57.2073 10.8568 57.6567 11.6004 57.6129 11.8708C57.5334 12.3878 57.3982 12.2446 57.3903 13.0757C57.3783 14.9686 57.259 16.8058 57.2352 18.6947C57.2312 19.1281 58.0543 19.3747 57.0602 19.9274C56.1973 19.6371 54.9725 19.6013 54.1255 19.9791C54.0658 19.9115 53.7437 18.4203 53.7397 18.2214C53.7119 16.2411 53.8034 13.8949 53.8789 11.8907C53.8988 11.3539 54.3163 10.829 53.7517 10.3717C53.2506 10.654 51.6998 10.3836 51.5486 10.9761C51.5009 11.167 51.7833 11.4215 51.7833 11.668C51.7833 13.3143 51.5288 15.0919 51.5407 16.8257C51.5447 17.3108 51.7674 18.2692 51.7355 18.6509C51.7077 18.9929 51.3458 19.2355 51.7793 19.7445L48.0333 19.8757L47.6118 19.1559C47.6834 18.9094 47.9777 18.6469 48.0095 18.4203C48.1487 17.3625 47.7947 15.0561 47.7908 13.7836C47.7908 11.8708 47.9618 10.2683 47.7908 8.37938C47.759 8.01354 48.0652 7.66757 47.8226 7.24605L48.6258 6.66945L49.4371 7.09892L49.4331 7.10688Z" fill="white"/>
<path d="M37.2607 6.87628C37.4119 7.29382 37.0937 7.69148 37.0659 7.96984C37.0341 8.33171 37.4556 9.13101 37.2647 9.67978H39.603C38.9031 8.95604 39.257 7.80679 39.3683 6.8723C39.9847 7.41311 40.4699 6.86434 40.8874 6.8723C41.0902 6.87627 41.2851 7.06715 41.4004 7.0592C41.806 7.03931 42.3428 6.95184 42.7524 6.86833H42.8797L42.991 9.68773C43.17 9.97007 43.3449 9.73942 43.5835 9.80702C43.6869 9.83486 43.7903 10.0894 43.9255 10.0973C44.0846 10.1092 44.5976 9.76328 44.868 9.7593C45.0429 9.7593 45.377 10.0178 45.6832 9.92234C45.548 10.658 45.8223 11.4971 45.8383 12.1413C45.878 13.7399 45.4008 15.4259 45.6991 17.0484L45.6871 19.9871C45.2855 19.8559 44.5856 19.7445 44.176 19.7445C43.7346 19.7445 43.1222 19.9394 42.987 19.9274C42.7842 19.9115 42.6291 19.3707 42.1758 19.7565C42.0724 18.6231 42.2872 17.4858 42.311 16.3684C42.3389 15.068 42.1718 13.6285 42.1758 12.3839C42.1758 11.9544 42.7127 10.5666 42.0486 10.3956C41.8617 10.3478 41.5952 10.6182 41.3447 10.6421C40.955 10.6779 40.5693 10.3518 40.0682 10.6302C40.3108 11.1432 40.0682 11.4573 40.0603 11.9067C40.0165 14.0103 40.1398 16.0145 40.0722 18.0067C40.0523 18.5913 40.0762 19.1759 40.0722 19.7604C38.7957 19.9871 37.5471 19.6173 36.3263 19.995C36.2467 19.661 36.5529 19.4542 36.5728 19.1679C36.7279 17.12 36.5529 14.9607 36.5489 12.8412C36.5489 12.014 37.0182 11.2028 36.0916 10.499C35.9087 10.3916 34.9583 10.9324 34.5646 10.4115C34.33 10.5745 34.2505 10.6858 34.2107 10.9761C34.1232 11.6283 34.2027 12.6224 34.2107 13.3343C34.2187 14.6227 34.4533 16.09 34.4453 17.3069C34.4374 18.0187 34.0715 18.7265 34.4533 19.3946C34.3857 19.669 33.4273 19.9155 33.1251 19.9473C32.5763 20.003 31.8884 19.5974 31.7731 19.5855C31.5941 19.5695 31.0732 19.9076 30.7113 19.7565C30.8704 19.4622 30.93 19.2952 30.9539 18.9492C31.1288 16.3724 30.9738 13.3263 30.9539 10.7375C30.9499 9.9462 30.6795 8.43112 30.7471 7.74715C30.767 7.53241 31.0652 7.23815 30.9419 6.88821C31.2243 6.81265 31.4629 7.1268 31.7174 7.08703C32.8865 6.90014 33.9045 7.08703 35.0378 7.03534C35.7616 7.00352 36.4654 6.59792 37.2607 6.89219V6.87628Z" fill="white"/>
<path d="M16.9046 7.09898C17.2148 7.17851 17.4295 6.9081 17.7158 6.87231C18.2209 6.80869 18.5231 6.9956 18.8889 7.01946C19.1116 7.03536 19.7757 6.61384 19.9308 7.24611C19.9467 7.31372 19.7996 8.15676 19.8075 8.38741C19.8433 10.2683 19.9865 12.1731 19.7916 14.0143L20.408 16.8377C21.1119 16.7025 21.1198 17.4858 21.7004 16.7382C22.5434 17.6529 22.8655 16.8933 22.7542 15.8833C22.7224 15.6089 22.3565 15.1874 22.8735 15.0641C23.0604 15.0203 23.4063 15.3424 23.8 15.3106C24.1699 15.2828 24.6113 14.909 25.0964 15.0641C25.2475 14.6227 24.8737 14.1375 24.9015 13.8194C24.9254 13.557 25.1322 13.3025 25.1123 12.8372C25.0686 11.851 24.9095 10.5745 25.2952 9.79909C24.5079 9.15091 25.2077 8.34365 25.3111 7.8943C25.3668 7.66366 24.9572 7.24214 25.0964 6.87231C25.8679 6.68939 25.331 7.40121 25.7963 7.34156L25.8122 6.88027C26.7228 7.11887 27.6772 6.96378 28.6038 6.87231C28.4765 7.47278 28.7191 8.10108 28.7469 8.62997C28.8026 9.59231 28.6912 10.6024 28.7747 11.6243C28.9298 13.5291 28.8304 15.9111 28.8463 17.9789C28.8503 18.5675 28.8264 19.156 28.8304 19.7406C27.88 19.9235 26.9336 19.7843 25.9593 19.8042C25.7684 19.8042 25.2316 20.182 25.0924 19.6173C25.0328 19.3668 25.6531 18.8896 24.8578 18.4561L25.327 18.2215C24.8419 17.5892 24.1818 17.8954 23.5734 18.1062L23.3387 17.4023L23.1996 18.0784L22.7423 18.2255L22.9888 19.5059C22.6071 19.5338 22.3565 19.7207 21.943 19.7525C21.3345 19.7962 20.6029 19.5378 20.0541 19.5815C19.8195 19.6014 19.6564 20.1223 19.2389 19.9752C18.9128 19.0645 19.2866 18.2573 19.0043 17.4023C18.6265 17.2512 18.1811 17.5693 17.9505 17.5693C17.6085 17.5693 16.7456 16.8774 16.2008 17.4023C16.0815 17.0603 16.3797 16.7581 16.3916 16.5394C16.5268 14.2767 16.169 11.4852 16.1888 9.10319C16.1968 8.16869 15.9463 7.19443 16.7853 6.63373L16.9126 7.09103L16.9046 7.09898Z" fill="white"/>
<path d="M3.55521 6.8763L6.36666 7.11092C5.93321 7.89033 6.19965 8.82881 6.13204 9.68775C6.73649 9.26623 6.79613 9.62015 7.30116 9.92237L7.30911 9.46506L8.23566 9.68775V6.88028L9.51612 7.12285C9.68314 7.09899 9.73086 6.27187 10.3353 6.39912C10.4188 6.15655 10.1762 5.96567 10.1484 5.78672C10.0569 5.22204 10.3989 3.46439 10.3552 2.79235C10.3313 2.43445 9.94162 1.98907 10.1086 1.49598L10.5779 1.96521H10.8125C10.6455 1.04264 11.8345 1.64311 12.3355 1.64709C12.6815 1.64709 13.2541 1.32499 13.7234 1.51189L14.0733 1.8658C14.2761 2.45433 13.9301 3.26556 13.9421 3.71889C13.958 4.28754 14.2443 5.27772 14.2403 5.82649C14.2403 6.15654 13.954 6.66952 14.0892 7.1149L12.4667 6.88823L12.427 7.30975L11.5163 7.71139C11.8623 8.19653 11.5879 8.56635 11.6038 8.86858C11.6158 9.14296 11.8464 9.41336 11.739 9.79511C11.5402 10.5029 10.387 9.99792 9.99331 10.0059C9.6553 10.0138 9.15425 10.2922 8.70489 10.157C8.73273 11.6005 8.66911 13.0519 8.69694 14.4994C8.71285 15.3266 9.05484 17.8557 8.91168 18.4323C8.81226 18.8339 8.13227 18.822 8.94349 19.4065L8.59753 19.7406C7.53578 19.323 6.27918 20.174 5.20948 19.7485C5.2055 18.8538 5.18959 17.9511 5.19357 17.0524C5.19357 15.0402 5.18164 12.9684 5.05836 10.9762C5.03848 10.6739 5.49977 10.2604 4.85158 9.96611L2.62867 10.157C2.24691 9.16682 2.75592 8.14086 2.39405 7.1149H0.0518387C0.489264 6.55022 0.139324 6.32356 0.0518387 5.82649C-0.0396228 5.30555 -0.075412 4.86813 0.521076 5.00731V4.77268L0.0558132 4.76871C0.266572 3.68708 0.1433 2.59749 0.0518387 1.49598C0.580725 1.22954 0.894875 1.51586 1.34025 1.51983C1.62259 1.51983 1.85721 1.35282 2.04013 1.34884C2.35826 1.34487 2.80761 1.74252 3.2172 1.28522L3.54726 1.63118C3.41206 2.001 3.74609 2.61339 3.73416 2.79632C3.72223 2.97924 3.36036 3.1224 3.36434 3.2576C3.36831 3.39281 3.70235 3.52006 3.72223 3.71889C3.77392 4.24777 3.60691 5.23795 3.61088 5.78672C3.61088 6.07701 4.00457 6.39115 3.56317 6.88425L3.55521 6.8763Z" fill="white"/>
<path d="M77.993 6.87628L77.7424 19.6213C77.3726 20.2734 77.142 19.8042 76.7006 19.7485C76.287 19.6968 76.0444 19.8837 75.77 19.8996C75.4479 19.9155 75.0861 19.4741 74.7282 20.1024C75.2253 21.1164 74.5691 22.385 74.9509 23.4984C74.3663 23.4984 73.7818 23.4944 73.1932 23.5024C72.4854 23.5143 72.3144 23.4388 71.5469 23.5104C70.0994 23.6456 68.5843 23.4109 67.109 23.4944C66.441 23.5342 65.9837 23.4666 65.3554 23.2638C65.2917 22.9576 65.5979 22.7111 65.594 22.4446C65.594 22.2021 65.3554 21.9873 65.3514 21.7408C65.3514 21.3908 65.7809 20.7625 65.594 20.2257C66.3654 19.999 67.0096 20.1501 67.7731 20.1541C69.5427 20.1581 71.2248 20.0786 72.9984 20.166C73.3602 20.182 73.6545 19.8877 74.1158 20.2376L74.2589 19.7604L74.7123 19.9911L74.7043 17.8914L73.8891 17.6489L73.6505 18.1261C73.2648 18.0903 72.8751 18.1499 72.4933 18.1101C71.8173 18.0425 70.8749 17.6807 70.3818 18.3448L70.1432 17.8676L67.9242 17.8795C68.3895 17.1995 68.0356 16.5076 68.0594 15.7679C67.9481 15.6208 67.2363 15.3544 67.0653 15.3424C66.8267 15.3226 66.6239 15.5532 66.433 15.5134C66.1388 15.4498 66.0592 14.913 65.3474 15.3027L65.5741 12.6185C65.2003 11.0159 65.5661 9.21055 65.59 7.69149C65.59 7.42108 65.2719 7.18646 65.3514 6.87628H69.0973C68.8349 7.69546 69.2325 8.51463 69.1093 9.32188C69.0695 9.58434 68.7196 9.38949 68.6281 9.44914V9.68375L69.0934 9.69171C68.7713 10.7614 69.3876 11.8152 68.8508 12.8372L69.32 12.9803C69.0973 13.3462 69.0973 13.5132 69.32 13.8791C68.8349 13.8791 68.7991 13.8592 68.8627 14.3642C69.4831 13.9825 69.6898 14.5034 69.9086 14.5233C70.6124 14.5869 70.851 14.2091 71.1135 14.1495C71.3759 14.0898 71.8849 14.6386 72.2667 14.1375L72.374 14.5988C72.9864 13.883 73.567 14.575 74.3544 14.3562C74.8674 14.2131 74.4975 13.8115 74.5293 13.5927C74.8276 11.5249 74.4339 10.2325 74.4618 8.39534C74.4697 7.92213 74.7123 7.16259 74.7162 6.63768C75.0224 6.57803 75.2571 6.87231 75.5354 6.86833C76.2313 6.86038 76.7006 7.01944 77.4084 7.01148C77.5834 7.01148 77.7782 6.81266 77.993 6.86833V6.87628Z" fill="white"/>
</svg>
