<?xml version="1.0" encoding="UTF-8"?>
<svg id="Ebene_1" xmlns="http://www.w3.org/2000/svg" version="1.1" viewBox="0 0 154 24">
  <!-- Generator: Adobe Illustrator 30.0.0, SVG Export Plug-In . SVG Version: 2.1.1 Build 123)  -->
  <defs>
    <style>
      .st0 {
        fill: #7b7773;
      }
    </style>
  </defs>
  <path class="st0" d="M95.84.92l1.63.02c.1.94.25,1.9,0,2.8l.92.23.13-.46c.38.62.91.3,1.51.25l.02.44.69-.22c-.37,1.19-.34,2.28-.21,3.5l.44.13c-.48.33-.53.73-.47,1.29l-1.17-.23v1.17c-.51.06-1.95-.23-2.1.36-.05.19.23.45.23.69,0,.43-.1.54-.05,1.22.02.31-.3.45-.08.78.31.46,1.64.14,2.23.23l-.23.93,1.17-.23c.17.47-.24.96-.24,1.29,0,.58.04,1.28.06,1.9.02.87.27,1.77.17,2.66-1.27.14-2.54-.32-3.75,0-.08-.27.16-.45.19-.62.09-.5-.16-2.35-.19-3.01-.03-.74.02-1.48,0-2.22-.66.06-1.44-.19-1.99.22l-.35-.34c-.12-.41.19-.78.17-.94-.01-.17-.52-.43-.43-.81-.91.2-2.12.45-3.03,0v7.49c-.66-.01-3.4.67-3.46-.34,0-.08.19-.39.19-.7.02-1.05-.19-2.22-.2-3.24,0-2.22.15-4.6.19-6.84,0-.6-.24-2.42-.21-2.54.05-.21.41-.36.41-.49,0-.28-.26-.4-.19-1.42.07-.95-.16-.61.22-1.87.06-.2-.66.06-.47-.46.06-.15.29-.29.24-.58.36.12.89-.2,1.05-.19.16.01.29.33.45.34.74.04,1.36-.26,2.16-.23.61.02.93.05,1.58.05.72,0,1.68.11,2.34.02.29-.04-.07-.58.36-.48v.45s.01,0,.01,0ZM95.82,8.65c.82.73,1.25.54.98-.53l-.15-3.46c-.26-.2-.62-.42-.95-.46-.66-.08-1.48.27-2.1.23-.43-.03-1.48-.01-1.6-.03-.24-.04-.51-.31-.86-.19.14.45-.15.96-.15,1.29,0,.71.25,1.83.29,2.58,0,.17-.21.41-.15.7.12.52,1.39.09,1.75.1.33.01.6.21.75.21.65,0,1.53-.41,2.07.04l.11-.46h0Z"/>
  <path class="st0" d="M128.36,9.36c.85.36,1.92-.06,2.81-.23.22-.73-.46-.23-.47-.7l.48-.13c-.25-.69-.12-1.07,0-1.75.52.27,1.15.05,1.7.06,1.56.01,3.82-.17,5.44.02.25.03.35.53.82.16-.18.57-.54,2.38.13,2.57.52.14,1.71-.43,2.21.36v5.03c-.38-.12-.76.14-1.05.15-2.16.12-4.77,0-7.02,0-.61,0-1.34-.49-1.97-.14-.28.48-.04.7,0,1.05.04.5-.45.71.12,1.05l9.7-.23c-.09.4.2.72.24,1.05.06.48-.18.71-.2.97-.04.43.47.74-.38,1.2-.77-.3-1.75-.2-2.59-.19-1.68.01-3.44-.02-5.14-.01-.39,0-.68.26-.94.26-.33,0-.82-.41-1.29-.24.33-.42.07-.62.06-1.01,0-.11.15-.27.14-.47-.02-.21-.34-1.07-.54-1.07-.7.52-1.42-.22-2.23-.02v-7.73h0ZM136.3,9.84c-.39.38-.77-.04-1.01.01-.2.04-.34.39-.49.39-.12,0-.64-.28-.95-.33-.53-.08-1.21,0-1.75.02-.25.01-.47-.14-.57-.12-.55.11-.13.61-.13.81,0,.24-.24.47-.2.67.03.16.29.33.2.62l.69-.23.11.46.59-.23.24.47c.01-.18-.1-.45.13-.48,1.04-.15,2.26-.11,3.26.26l.15-.46c.59.31,1.07-.38,1.71-.03.54-.33.7-1.4.14-1.76l-1.16-.09-.03.45c-.37-.23-.53-.22-.9,0l-.03-.45h0Z"/>
  <path class="st0" d="M104.95,6.55l.68.27.14.44.47-.7.12.47c.47.16.67-.56,1.03-.46.21.06.31.47.72.47.21,0,1.68-.08,1.76-.11.81-.23.62-.12,1.23-.17.2-.02.44-.29.73-.18l.83,1.62-.46.13c-.04.3.22,1.01.46,1.18.5.34.89-.1,1.3-.12.3-.02.83.19,1.29,0,.12.35-.18.65-.19.86-.15,2.62.07,5.53-.04,8.39-.01.27.24.62,0,1.05-.63-.39-.87.16-1.05.17-2.39.14-5.41-.4-7.72-.18-.32.03-.49.36-.83.14-.64-.41-.42-1.98-.47-2.7h-2.58c.37-.87.37-2.16,0-3.04l2.34-.11c.45-.29.16-1.44.23-2,.51.02,1.03-.03,1.53,0,1.26.05,2.52.19,3.73.15.5-.01,1.16-.28,1.75-.15.36-2.8-.44-1.94-2.23-1.86-1.22.05-2.93-.11-4.21-.15-.14,0-.36.21-.58.15v-3.51h0ZM105.42,16.85c.91-.01,2.03-.22,2.92-.14.33.03,1.03.32,1.19.31.16-.01.29-.34.45-.35.47-.03,1.17.64,1.77.06.41-.39.46-1.9-.35-2-.72-.1-1.81,0-2.59,0-.36,0-1.05.21-1.4.17-.19-.02-.3-.32-.45-.33-.25-.02-1.06.36-1.53.17v2.11Z"/>
  <path class="st0" d="M121.8,3.03l.12-.47.71.44.58-.44c.2.64-.21,1.28-.25,1.77,0,.07,0,1.1.02,1.16.04.35.29.65.24,1.04.85.23,1.56.26,2.44.25.23,0,.44-.24.67-.2.37.06.81.41.81.79,0,.14-.35.29-.37.46,0,.1.17.28.17.47,0,.51,0,1.02,0,1.52-.77-.43-1.37.14-2.03.19-.35.03-.79-.35-1.35-.18-.66.19-.19.81-.17,1.09.05.58-.17,2.01-.13,2.54.01.16.33.29.35.45,0,.13-.21.54-.19.95.02.5.22,1.21.26,1.74.46-.14.97.25,1.28.25.24,0,.44-.22.71-.23.35-.02.55.41.94-.24.22.18.31.28.36.58.11.82-.09,1.85,0,2.7l-2.51.18-1.94-.18c.54-.88-.3-1.58.23-2.57l-.7-.23-.24.7c-.01-.18.1-.45-.13-.48-.45-.06-.86-.02-1.4-.12-.06-.01-.48.2-.57-.22-.04-.17.18-.36.19-.5.1-1.35-.14-3.42-.18-4.88-.01-.44.31-1.12-.36-1.47-.99.23-1.91-.14-2.93-.05.13-.75-.23-2.47.11-3.05.1-.17.72-.14.93-.13.22,0,.44.16.71.16.23,0,1.69-.19,1.76-.25-.47-.56-.09-1.07-.1-1.53-.01-.5-.36-2.2.21-2.2l.82.21v-.45s.94.46.94.46h-.01Z"/>
  <path class="st0" d="M143.34,19.66c-.11-.38.22-.71.2-1.01-.04-.45-.35-1.28-.39-1.73-.07-.96.27-2.76.21-3.69-.04-.51-.47-.8.22-1.42l-.48-.24c.29-.53.03-1,.06-1.36.02-.24.2-.54.2-.98,0-.38-.25-.98-.2-1.35.03-.25.29-.52.19-.87.38-.14.82.17,1.05.17.18,0,.96-.48,1.36-.37.22.06.35.37.5.38s.51-.3.83-.17c-.46.68-.28,1.28-.43,1.99.04.44,1.69.54,2.05.33.27-.89-.4-2.32.83-2.73.36-.12,1.01.34,1.17.34.57,0,1.05.08,1.41.07.29,0,.55-.37.82-.13.92.58.19,1.21.26,1.61.05.33.55.65.44,1.09l-.47-.1v.57c-.49.16-.99-.17-1.33-.19-.5-.04-1.62.18-2.02.14-.19-.02-.73-.4-.86.17-.03.13.27,1.31.25,1.62-.02.29-.28.51-.26.82-.82-.08-1.26.42-1.86-.22-.35.95,0,1.95-.24,2.91v4.34s-3.5,0-3.5,0h0Z"/>
  <path class="st0" d="M49.43,7.11l.12-.47c.84.74,1.72.21,2.57.24.27.01.48.23.71.23.33,0,.86-.4,1.17-.4.19,0,.5.27.82.16-.24.55.04,1.11.01,1.52-.04.62-.86.91-.02,1.42.29.17.45-.07.59-.06.19.01.32.35.46.35.05,0,.83-.35.92-.41.15-.1.22-.37.37-.6.14-.21-.6.04-.47-.35l.48-.13c-.31-.47-.11-.69-.07-1.12,0-.08-.3-.51.18-.62.28-.07.52.15.7.15.17,0,.39-.15.7-.15.43,0,.67.33,1.29-.23-.17.58.45.39.49.59l-.25,2.45.93.23.13-.46c.46.88,1.89-.17,2.2.85.14.48.04,1.93.02,2.55-.06,1.95-.17,3.88-.15,5.85,0,.5.52,1.4-.63,1.24-.93-.13-1.78-.33-2.73.05.13-.4-.24-.76-.23-1.05.06-2.48.35-5.31,0-7.73-.04-.27,0-.55,0-.82-.7.13-1.69.22-2.34,0-.2.47.25,1.22.21,1.49-.08.52-.21.37-.22,1.2-.01,1.89-.13,3.73-.16,5.62,0,.43.82.68-.17,1.23-.86-.29-2.09-.33-2.93.05-.06-.07-.38-1.56-.39-1.76-.03-1.98.06-4.33.14-6.33.02-.54.44-1.06-.13-1.52-.5.28-2.05.01-2.2.6-.05.19.23.45.23.69,0,1.65-.25,3.42-.24,5.16,0,.49.23,1.44.19,1.83-.03.34-.39.58.04,1.09l-3.75.13-.42-.72c.07-.25.37-.51.4-.74.14-1.06-.21-3.36-.22-4.64,0-1.91.17-3.52,0-5.4-.03-.37.27-.71.03-1.13l.8-.58.81.43h0Z"/>
  <path class="st0" d="M37.26,6.88c.15.42-.17.82-.19,1.09-.03.36.39,1.16.2,1.71h2.34c-.7-.72-.35-1.87-.23-2.81.62.54,1.1,0,1.52,0,.2,0,.4.19.51.19.41-.02.94-.11,1.35-.19h.13l.11,2.82c.18.28.35.05.59.12.1.03.21.28.34.29.16.01.67-.33.94-.34.17,0,.51.26.82.16-.14.74.14,1.57.16,2.22.04,1.6-.44,3.28-.14,4.91v2.94c-.41-.13-1.11-.24-1.52-.24-.44,0-1.05.19-1.19.18-.2-.02-.36-.56-.81-.17-.1-1.13.11-2.27.14-3.39.03-1.3-.14-2.74-.14-3.98,0-.43.54-1.82-.13-1.99-.19-.05-.45.22-.7.25-.39.04-.78-.29-1.28-.01.24.51,0,.83,0,1.28-.04,2.1.08,4.11.01,6.1-.02.58,0,1.17,0,1.75-1.28.23-2.53-.14-3.75.23-.08-.33.23-.54.25-.83.16-2.05-.02-4.21-.02-6.33,0-.83.47-1.64-.46-2.34-.18-.11-1.13.43-1.53-.09-.23.16-.31.27-.35.56-.09.65,0,1.65,0,2.36,0,1.29.24,2.76.23,3.97,0,.71-.37,1.42,0,2.09-.07.27-1.03.52-1.33.55-.55.06-1.24-.35-1.35-.36-.18-.02-.7.32-1.06.17.16-.29.22-.46.24-.81.17-2.58.02-5.62,0-8.21,0-.79-.27-2.31-.21-2.99.02-.21.32-.51.19-.86.28-.08.52.24.78.2,1.17-.19,2.19,0,3.32-.05.72-.03,1.43-.44,2.22-.14v-.02Z"/>
  <path class="st0" d="M16.9,7.1c.31.08.52-.19.81-.23.51-.06.81.12,1.17.15.22.02.89-.41,1.04.23.02.07-.13.91-.12,1.14.04,1.88.18,3.79-.02,5.63l.62,2.82c.7-.14.71.65,1.29-.1.84.91,1.17.16,1.05-.85-.03-.27-.4-.7.12-.82.19-.04.53.28.93.25.37-.03.81-.4,1.3-.25.15-.44-.22-.93-.19-1.24.02-.26.23-.52.21-.98-.04-.99-.2-2.26.18-3.04-.79-.65-.09-1.46.02-1.9.06-.23-.35-.65-.21-1.02.77-.18.23.53.7.47l.02-.46c.91.24,1.86.08,2.79,0-.13.6.12,1.23.14,1.76.06.96-.06,1.97.03,2.99.16,1.9.06,4.29.07,6.35,0,.59-.02,1.18-.02,1.76-.95.18-1.9.04-2.87.06-.19,0-.73.38-.87-.19-.06-.25.56-.73-.23-1.16l.47-.23c-.49-.63-1.15-.33-1.75-.12l-.23-.7-.14.68-.46.15.25,1.28c-.38.03-.63.21-1.05.25-.61.04-1.34-.21-1.89-.17-.23.02-.4.54-.82.39-.33-.91.05-1.72-.23-2.57-.38-.15-.82.17-1.05.17-.34,0-1.2-.69-1.75-.17-.12-.34.18-.64.19-.86.14-2.26-.22-5.05-.2-7.44,0-.93-.24-1.91.6-2.47l.13.46h0Z"/>
  <path class="st0" d="M3.56,6.88l2.81.23c-.43.78-.17,1.72-.23,2.58.6-.42.66-.07,1.17.23v-.46s.93.22.93.22v-2.81l1.28.24c.17-.02.21-.85.82-.72.08-.24-.16-.43-.19-.61-.09-.56.25-2.32.21-2.99-.02-.36-.41-.8-.25-1.3l.47.47h.23c-.17-.92,1.02-.32,1.52-.32.35,0,.92-.32,1.39-.14l.35.35c.2.59-.14,1.4-.13,1.85.02.57.3,1.56.3,2.11,0,.33-.29.84-.15,1.29l-1.62-.23-.04.42-.91.4c.35.49.07.85.09,1.16.01.27.24.54.14.93-.2.71-1.35.2-1.75.21-.34,0-.84.29-1.29.15.03,1.44-.04,2.89,0,4.34.02.83.36,3.36.21,3.93-.1.4-.78.39.03.97l-.35.33c-1.06-.42-2.32.43-3.39,0,0-.89-.02-1.8-.02-2.7,0-2.01-.01-4.08-.14-6.08-.02-.3.44-.72-.21-1.01l-2.22.19c-.38-.99.13-2.02-.23-3.04H.05c.44-.56.09-.79,0-1.29-.09-.52-.13-.96.47-.82v-.23H.06c.21-1.09.09-2.18,0-3.28.53-.27.84.02,1.29.02.28,0,.52-.17.7-.17.32,0,.77.39,1.18-.06l.33.35c-.14.37.2.98.19,1.17-.01.18-.37.33-.37.46,0,.14.34.26.36.46.05.53-.12,1.52-.11,2.07,0,.29.39.6-.05,1.1h0Z"/>
  <path class="st0" d="M77.99,6.88l-.25,12.75c-.37.65-.6.18-1.04.13-.41-.05-.66.14-.93.15-.32.02-.68-.43-1.04.2.5,1.01-.16,2.28.22,3.4-.58,0-1.17,0-1.76,0-.71.01-.88-.06-1.65,0-1.45.14-2.96-.1-4.44-.02-.67.04-1.13-.03-1.75-.23-.06-.31.24-.55.24-.82,0-.24-.24-.46-.24-.7,0-.35.43-.98.24-1.52.77-.23,1.42-.08,2.18-.07,1.77,0,3.45-.08,5.23.01.36.02.66-.28,1.12.07l.14-.48.45.23v-2.1s-.82-.24-.82-.24l-.24.48c-.39-.04-.78.02-1.16-.02-.68-.07-1.62-.43-2.11.23l-.24-.48h-2.22c.47-.67.11-1.36.14-2.1-.11-.15-.82-.41-.99-.43-.24-.02-.44.21-.63.17-.29-.06-.37-.6-1.09-.21l.23-2.68c-.37-1.6,0-3.41.02-4.93,0-.27-.32-.51-.24-.82h3.75c-.26.82.14,1.64.01,2.45-.04.26-.39.07-.48.13v.23h.47c-.32,1.08.29,2.13-.24,3.15l.47.14c-.22.37-.22.53,0,.9-.49,0-.52-.02-.46.49.62-.38.83.14,1.05.16.7.06.94-.31,1.2-.37.26-.06.77.49,1.15-.01l.11.46c.61-.72,1.19-.02,1.98-.24.51-.14.14-.54.17-.76.3-2.07-.1-3.36-.07-5.2,0-.47.25-1.23.25-1.76.31-.06.54.23.82.23.7,0,1.17.15,1.87.14.17,0,.37-.2.58-.14h0Z"/>
</svg>